<svg xmlns="http://www.w3.org/2000/svg" xmlns:xlink="http://www.w3.org/1999/xlink" width="500" zoomAndPan="magnify" viewBox="0 0 375 374.999991" height="500" preserveAspectRatio="xMidYMid meet" version="1.0"><defs><clipPath id="c70a977347"><path d="M 58 16 L 332.113281 16 L 332.113281 362 L 58 362 Z M 58 16 " clip-rule="nonzero"/></clipPath></defs><g clip-path="url(#c70a977347)"><path fill="#000000" d="M 283.546875 175.59375 C 295.148438 175.59375 304.464844 181.851562 311.488281 194.371094 C 318.816406 206.585938 322.480469 223.078125 322.480469 243.839844 C 322.480469 279.875 311.640625 307.96875 289.957031 328.121094 C 268.582031 347.972656 238.65625 357.894531 200.179688 357.894531 C 154.683594 357.894531 119.566406 343.542969 94.832031 314.839844 C 70.402344 286.132812 58.1875 244.910156 58.1875 191.167969 C 58.1875 164.292969 61.238281 140.171875 67.347656 118.796875 C 73.761719 97.417969 82.769531 79.25 94.371094 64.289062 C 106.28125 49.019531 120.632812 37.414062 137.429688 29.476562 C 154.222656 21.230469 173.15625 17.109375 194.226562 17.109375 C 209.496094 17.109375 223.234375 19.246094 235.449219 23.519531 C 247.96875 27.796875 258.660156 33.902344 267.515625 41.84375 C 276.371094 49.476562 283.085938 58.789062 287.667969 69.785156 C 292.554688 80.472656 294.996094 92.535156 294.996094 105.96875 C 294.996094 115.4375 293.773438 124.140625 291.332031 132.078125 C 289.195312 140.019531 286.140625 146.886719 282.171875 152.691406 C 278.203125 158.492188 273.316406 163.074219 267.515625 166.433594 C 262.015625 169.484375 256.0625 171.011719 249.648438 171.011719 C 239.574219 171.011719 231.328125 167.347656 224.914062 160.019531 C 218.503906 152.386719 215.296875 142.765625 215.296875 131.164062 C 215.296875 125.972656 214.53125 120.933594 213.007812 116.046875 C 211.785156 111.160156 210.105469 106.886719 207.96875 103.222656 C 205.832031 99.558594 203.234375 96.65625 200.179688 94.519531 C 197.433594 92.382812 194.378906 91.3125 191.019531 91.3125 C 187.050781 91.3125 183.234375 93.144531 179.570312 96.808594 C 175.90625 100.167969 172.699219 105.054688 169.949219 111.464844 C 167.203125 117.574219 164.910156 124.75 163.078125 132.996094 C 161.550781 140.933594 160.789062 149.484375 160.789062 158.644531 C 160.789062 176.660156 163.84375 190.554688 169.949219 200.328125 C 176.363281 210.097656 185.371094 214.984375 196.976562 214.984375 C 204.914062 214.984375 212.546875 213 219.878906 209.03125 C 227.207031 204.753906 234.382812 200.175781 241.40625 195.289062 C 248.429688 190.402344 255.453125 185.976562 262.476562 182.003906 C 269.5 177.730469 276.523438 175.59375 283.546875 175.59375 Z M 453.9375 180.632812 C 453.9375 186.128906 454.546875 191.929688 455.769531 198.035156 C 456.992188 203.839844 458.824219 209.335938 461.265625 214.527344 C 463.710938 219.414062 466.917969 223.535156 470.886719 226.894531 C 474.855469 230.253906 479.742188 231.933594 485.542969 231.933594 C 491.652344 231.933594 496.382812 230.40625 499.742188 227.351562 C 503.40625 224.296875 506.15625 220.328125 507.988281 215.441406 C 509.820312 210.25 511.042969 204.601562 511.652344 198.496094 C 512.261719 192.082031 512.566406 185.667969 512.566406 179.257812 C 512.566406 172.84375 511.804688 166.125 510.277344 159.101562 C 509.054688 152.078125 507.070312 145.667969 504.324219 139.863281 C 501.878906 133.757812 498.675781 128.71875 494.703125 124.75 C 491.039062 120.78125 486.765625 118.796875 481.878906 118.796875 C 478.519531 118.796875 475.160156 120.320312 471.800781 123.375 C 468.441406 126.429688 465.390625 130.703125 462.640625 136.199219 C 460.199219 141.390625 458.058594 147.804688 456.226562 155.4375 C 454.703125 163.074219 453.9375 171.46875 453.9375 180.632812 Z M 479.128906 361.558594 C 456.226562 361.558594 435.921875 358.351562 418.210938 351.941406 C 400.5 345.527344 385.535156 335.449219 373.320312 321.710938 C 361.414062 307.96875 352.40625 290.257812 346.296875 268.578125 C 340.191406 246.894531 337.136719 220.785156 337.136719 190.25 C 337.136719 160.933594 340.953125 135.894531 348.585938 115.128906 C 356.527344 94.058594 367.214844 76.808594 380.652344 63.371094 C 394.390625 49.628906 410.421875 39.707031 428.746094 33.597656 C 447.066406 27.1875 466.917969 23.980469 488.292969 23.980469 C 509.972656 23.980469 529.667969 27.339844 547.378906 34.054688 C 565.394531 40.773438 580.664062 50.699219 593.183594 63.828125 C 606.007812 76.960938 615.933594 93.449219 622.957031 113.296875 C 629.980469 132.84375 633.492188 155.746094 633.492188 182.003906 C 633.492188 241.550781 620.210938 286.441406 593.640625 316.671875 C 567.382812 346.597656 529.210938 361.558594 479.128906 361.558594 Z M 883.128906 85.816406 C 883.128906 93.144531 881.140625 101.695312 877.171875 111.464844 C 873.203125 121.238281 868.164062 131.46875 862.058594 142.15625 C 856.253906 152.539062 849.84375 162.921875 842.820312 173.300781 C 836.101562 183.378906 829.6875 192.539062 823.582031 200.785156 C 817.777344 209.03125 812.894531 215.75 808.921875 220.9375 C 804.953125 226.128906 802.96875 229.03125 802.96875 229.640625 C 802.96875 232.085938 804.34375 233.460938 807.089844 233.765625 C 810.144531 233.765625 812.433594 233.765625 813.960938 233.765625 C 818.542969 233.765625 822.511719 233.765625 825.871094 233.765625 C 829.230469 233.460938 832.285156 233.308594 835.03125 233.308594 C 838.085938 233 841.292969 232.847656 844.652344 232.847656 C 848.011719 232.542969 851.980469 232.390625 856.558594 232.390625 C 867.554688 232.390625 876.5625 233.613281 883.585938 236.054688 C 890.914062 238.191406 896.5625 242.007812 900.53125 247.507812 C 904.808594 252.699219 907.707031 259.71875 909.234375 268.578125 C 910.761719 277.125 911.527344 287.660156 911.527344 300.179688 C 911.527344 314.226562 911.066406 325.070312 910.152344 332.703125 C 909.234375 340.335938 905.417969 345.832031 898.699219 349.191406 C 891.984375 352.550781 880.988281 354.535156 865.722656 355.148438 C 850.453125 355.757812 828.621094 356.0625 800.21875 356.0625 C 790.449219 356.0625 780.523438 355.910156 770.449219 355.605469 C 760.371094 355.300781 750.445312 355.148438 740.675781 355.148438 C 729.070312 355.148438 717.621094 354.535156 706.320312 353.316406 C 695.023438 352.398438 684.792969 349.957031 675.632812 345.984375 C 666.777344 341.710938 659.449219 335.449219 653.644531 327.207031 C 648.148438 318.960938 645.402344 307.664062 645.402344 293.3125 C 645.402344 283.539062 648.300781 273.003906 654.105469 261.707031 C 659.90625 250.101562 666.929688 238.496094 675.175781 226.894531 C 683.417969 215.289062 691.96875 204.144531 700.824219 193.457031 C 709.984375 182.769531 717.773438 173.609375 724.183594 165.972656 C 725.710938 164.140625 728.003906 161.699219 731.054688 158.644531 C 734.109375 155.589844 737.164062 152.539062 740.214844 149.484375 C 743.269531 146.429688 745.867188 143.53125 748.003906 140.78125 C 750.140625 138.03125 751.058594 135.894531 750.75 134.367188 C 750.445312 131.925781 749.683594 130.703125 748.460938 130.703125 C 747.546875 130.398438 746.78125 130.246094 746.171875 130.246094 C 736.703125 130.246094 727.238281 131.007812 717.773438 132.535156 C 708.613281 134.0625 699.296875 134.828125 689.832031 134.828125 C 682.808594 134.828125 676.855469 132.996094 671.96875 129.328125 C 667.082031 125.664062 663.113281 120.933594 660.058594 115.128906 C 657.308594 109.023438 655.171875 102.152344 653.644531 94.519531 C 652.425781 86.882812 651.8125 79.25 651.8125 71.617188 C 651.8125 60.316406 655.785156 51.15625 663.722656 44.132812 C 671.96875 37.109375 681.738281 31.613281 693.039062 27.644531 C 704.640625 23.675781 716.703125 21.078125 729.222656 19.855469 C 741.742188 18.332031 752.277344 17.566406 760.828125 17.566406 C 774.265625 17.566406 788.160156 17.71875 802.511719 18.023438 C 816.863281 18.328125 829.992188 20.621094 841.902344 24.894531 C 853.8125 28.863281 863.582031 35.582031 871.21875 45.050781 C 879.15625 54.210938 883.128906 67.800781 883.128906 85.816406 Z M 900.988281 80.777344 C 900.988281 71.921875 901.753906 63.828125 903.28125 56.5 C 904.808594 49.171875 907.402344 42.910156 911.066406 37.722656 C 914.730469 32.53125 919.769531 28.558594 926.183594 25.8125 C 932.59375 22.757812 940.6875 21.230469 950.457031 21.230469 C 965.726562 21.230469 977.027344 23.214844 984.355469 27.1875 C 991.683594 30.851562 996.875 38.027344 999.925781 48.714844 C 1001.453125 53.601562 1002.675781 57.875 1003.59375 61.539062 C 1004.507812 64.898438 1005.578125 67.953125 1006.796875 70.699219 C 1008.324219 73.449219 1010.15625 76.195312 1012.292969 78.945312 C 1014.738281 81.386719 1017.945312 84.136719 1021.914062 87.191406 C 1023.441406 88.410156 1025.121094 89.480469 1026.953125 90.394531 C 1028.785156 91.3125 1030.769531 91.769531 1032.90625 91.769531 C 1045.121094 91.769531 1054.742188 88.410156 1061.765625 81.691406 C 1069.09375 74.976562 1073.519531 65.96875 1075.046875 54.667969 C 1075.964844 47.035156 1077.949219 40.773438 1081 35.886719 C 1084.359375 31.003906 1088.332031 27.1875 1092.910156 24.4375 C 1097.492188 21.382812 1102.378906 19.398438 1107.570312 18.484375 C 1112.757812 17.261719 1117.949219 16.652344 1123.140625 16.652344 C 1136.578125 16.652344 1147.417969 20.621094 1155.664062 28.558594 C 1163.910156 36.5 1168.03125 47.339844 1168.03125 61.082031 C 1168.03125 76.042969 1166.960938 89.328125 1164.824219 100.929688 C 1162.992188 112.535156 1159.785156 123.375 1155.207031 133.453125 C 1150.929688 143.222656 1145.128906 152.691406 1137.800781 161.851562 C 1130.777344 171.011719 1122.226562 180.632812 1112.148438 190.707031 C 1102.070312 201.089844 1095.507812 209.945312 1092.453125 217.273438 C 1089.398438 224.296875 1087.871094 229.335938 1087.871094 232.390625 C 1087.871094 237.886719 1088.179688 243.078125 1088.789062 247.964844 C 1089.703125 252.851562 1090.46875 257.734375 1091.078125 262.621094 C 1091.996094 267.507812 1092.757812 272.546875 1093.371094 277.738281 C 1094.285156 282.929688 1094.742188 288.730469 1094.742188 295.144531 C 1094.742188 303.691406 1093.523438 311.785156 1091.078125 319.417969 C 1088.941406 326.75 1085.429688 333.3125 1080.542969 339.117188 C 1075.660156 344.917969 1069.246094 349.496094 1061.304688 352.855469 C 1053.367188 356.214844 1043.746094 357.894531 1032.449219 357.894531 C 1009.546875 357.894531 992.90625 352.703125 982.523438 342.320312 C 972.140625 331.9375 966.949219 315.601562 966.949219 293.3125 C 966.949219 287.507812 967.253906 282.46875 967.863281 278.195312 C 968.78125 273.613281 969.695312 269.339844 970.613281 265.371094 C 971.835938 261.09375 972.75 256.667969 973.359375 252.085938 C 974.277344 247.507812 974.734375 242.316406 974.734375 236.511719 C 974.734375 227.046875 972.597656 218.648438 968.324219 211.320312 C 964.046875 203.992188 957.941406 196.359375 950 188.417969 C 935.34375 174.675781 923.433594 158.644531 914.273438 140.324219 C 905.417969 121.695312 900.988281 101.847656 900.988281 80.777344 Z M 900.988281 80.777344 " fill-opacity="1" fill-rule="nonzero"/></g></svg>