<?xml version="1.0" encoding="UTF-8" standalone="no"?>
<!-- Created with Inkscape (http://www.inkscape.org/) -->

<svg
   width="500"
   height="500"
   viewBox="0 0 132.29166 132.29167"
   version="1.1"
   id="svg1"
   inkscape:version="1.3.2 (1:1.3.2+202311252150+091e20ef0f)"
   sodipodi:docname="logo.svg"
   xmlns:inkscape="http://www.inkscape.org/namespaces/inkscape"
   xmlns:sodipodi="http://sodipodi.sourceforge.net/DTD/sodipodi-0.dtd"
   xmlns="http://www.w3.org/2000/svg"
   xmlns:svg="http://www.w3.org/2000/svg">
  <sodipodi:namedview
     id="namedview1"
     pagecolor="#ffffff"
     bordercolor="#000000"
     borderopacity="0.25"
     inkscape:showpageshadow="2"
     inkscape:pageopacity="0.0"
     inkscape:pagecheckerboard="true"
     inkscape:deskcolor="#d1d1d1"
     inkscape:document-units="mm"
     inkscape:zoom="1.4538721"
     inkscape:cx="254.1489"
     inkscape:cy="262.05882"
     inkscape:window-width="1452"
     inkscape:window-height="752"
     inkscape:window-x="1498"
     inkscape:window-y="189"
     inkscape:window-maximized="0"
     inkscape:current-layer="layer1" />
  <defs
     id="defs1" />
  <g
     inkscape:label="Layer 1"
     inkscape:groupmode="layer"
     id="layer1">
    <path
       d="m 27.977497,63.100818 q 2.021193,0 3.244547,2.180761 1.276543,2.127572 1.276543,5.744444 0,6.276338 -3.77644,9.786832 -3.723251,3.457304 -10.425103,3.457304 -7.925206,0 -12.2335392,-4.999794 -4.255144,-4.999794 -4.255144,-14.361111 0,-4.680659 1.063786,-8.40391 1.1169753,-3.723251 3.1381687,-6.329526 2.0743827,-2.659465 4.9997945,-4.042387 2.925411,-1.436111 6.595473,-1.436111 2.659465,0 4.787037,0.74465 2.180761,0.74465 3.723251,2.127572 1.54249,1.329732 2.340329,3.244547 0.851029,1.861626 0.851029,4.201955 0,1.648868 -0.425514,3.03179 -0.372325,1.382922 -1.063786,2.393519 -0.691461,1.010596 -1.702058,1.595679 -0.957407,0.531893 -2.074383,0.531893 -1.755247,0 -2.872222,-1.276544 -1.116975,-1.329732 -1.116975,-3.350926 0,-0.904218 -0.265947,-1.755247 -0.212757,-0.851028 -0.585082,-1.4893 -0.372325,-0.638272 -0.904218,-1.010597 -0.478704,-0.372325 -1.063786,-0.372325 -0.691461,0 -1.329733,0.638272 -0.638271,0.585082 -1.116975,1.702057 -0.478704,1.063787 -0.797839,2.499898 -0.265947,1.382921 -0.265947,2.9786 0,3.138169 1.063786,4.840227 1.116975,1.702057 3.138169,1.702057 1.382922,0 2.659465,-0.69146 1.276543,-0.744651 2.499897,-1.59568 1.223354,-0.851028 2.446708,-1.542489 1.223354,-0.74465 2.446708,-0.74465 z M 47.763819,63.6859 q 0,0.957407 0.212757,2.021193 0.212757,1.010597 0.638271,1.914815 0.425515,0.851029 1.116976,1.436111 0.691461,0.585083 1.702057,0.585083 1.063786,0 1.648869,-0.531893 0.638271,-0.531893 0.957407,-1.382922 0.319136,-0.904218 0.425515,-1.968004 0.106378,-1.116976 0.106378,-2.233951 0,-1.116975 -0.265946,-2.340329 -0.212758,-1.223354 -0.691461,-2.233951 -0.425515,-1.063786 -1.116976,-1.755247 -0.638271,-0.691461 -1.4893,-0.691461 -0.585082,0 -1.170165,0.531893 -0.585082,0.531893 -1.063786,1.489301 -0.425514,0.904218 -0.74465,2.23395 -0.265946,1.329733 -0.265946,2.925412 z m 2.925411,21.009774 q -3.989197,0 -7.074177,-1.116976 -3.084979,-1.116975 -5.212551,-3.510494 -2.074383,-2.393518 -3.138169,-6.169958 -1.063786,-3.776441 -1.063786,-9.095371 0,-5.106173 1.329733,-8.723045 1.382921,-3.670062 3.723251,-6.010391 2.393518,-2.393519 5.584876,-3.457305 3.191358,-1.116975 6.914609,-1.116975 3.776441,0 6.86142,1.170165 3.138169,1.170164 5.31893,3.457304 2.233951,2.28714 3.457305,5.744445 1.223353,3.404115 1.223353,7.978395 0,10.371913 -4.627469,15.637654 -4.57428,5.212552 -13.297325,5.212552 z M 97.602121,52.675715 q 0,1.276543 -0.691461,2.9786 -0.69146,1.702058 -1.755246,3.563684 -1.010597,1.808436 -2.233951,3.616872 -1.170165,1.755247 -2.233951,3.191358 -1.010596,1.436111 -1.702057,2.340329 -0.691461,0.904218 -0.691461,1.010597 0,0.425514 0.478703,0.478704 0.531893,0 0.79784,0 0.79784,0 1.382922,0 0.585082,-0.05319 1.063786,-0.05319 0.531893,-0.05319 1.116975,-0.05319 0.585082,-0.05319 1.382922,-0.05319 1.914815,0 3.138169,0.425514 1.276543,0.372325 1.968004,1.329733 0.744655,0.904218 1.010595,2.446708 0.26595,1.4893 0.26595,3.670061 0,2.446708 -0.15957,3.776441 -0.15957,1.329732 -1.329732,1.914814 -1.170165,0.585083 -3.82963,0.691461 -2.659465,0.106379 -7.60607,0.106379 -1.702058,0 -3.457305,-0.05319 -1.755246,-0.05319 -3.457304,-0.05319 -2.021194,0 -3.989198,-0.212757 -1.968004,-0.159568 -3.563683,-0.851029 -1.542489,-0.74465 -2.553086,-2.180761 -0.957408,-1.436111 -0.957408,-3.936008 0,-1.702058 1.010597,-3.670062 1.010597,-2.021193 2.446708,-4.042387 1.436111,-2.021193 2.978601,-3.882819 1.595679,-1.861625 2.712654,-3.191358 0.265947,-0.319136 0.79784,-0.851029 0.531893,-0.531893 1.063786,-1.063786 0.531893,-0.531893 0.904218,-1.010596 0.372325,-0.478704 0.319136,-0.74465 -0.05319,-0.425515 -0.265947,-0.425515 -0.159568,-0.05319 -0.265946,-0.05319 -1.648869,0 -3.297737,0.265946 -1.595679,0.265947 -3.244547,0.265947 -1.223354,0 -2.074383,-0.638272 -0.851029,-0.638271 -1.382922,-1.648868 -0.478704,-1.063786 -0.74465,-2.393519 -0.212757,-1.329732 -0.212757,-2.659465 0,-1.968004 1.382921,-3.191358 1.436112,-1.223354 3.404116,-1.914815 2.021193,-0.69146 4.201954,-0.904218 2.180762,-0.265946 3.670062,-0.265946 2.340329,0 4.840226,0.05319 2.499898,0.05319 4.57428,0.79784 2.074383,0.691461 3.404116,2.340329 1.382921,1.595679 1.382921,4.733848 z m 2.07424,-0.585083 q 0,-1.542489 0.265946,-2.819033 0.265943,-1.276543 0.904223,-2.180761 0.63827,-0.904218 1.75524,-1.382922 1.11698,-0.531893 2.81904,-0.531893 2.65946,0 3.936,0.691461 1.27655,0.638272 1.80844,2.499897 0.26595,0.851029 0.42551,1.489301 0.15957,0.585082 0.37233,1.063786 0.26595,0.478703 0.63827,0.957407 0.42552,0.425515 1.11698,0.957408 0.26594,0.212757 0.58508,0.372325 0.31913,0.159568 0.69146,0.159568 2.12757,0 3.35093,-1.170165 1.27654,-1.170165 1.54248,-3.138169 0.15957,-1.329732 0.69147,-2.180761 0.58508,-0.851029 1.38292,-1.329733 0.79784,-0.531893 1.70206,-0.691461 0.90421,-0.212757 1.80843,-0.212757 2.34033,0 3.77644,1.382922 1.43611,1.382922 1.43611,3.77644 0,2.606276 -0.37232,4.62747 -0.31914,2.021193 -1.11698,3.77644 -0.74465,1.702058 -2.02119,3.297737 -1.22335,1.595679 -2.9786,3.350925 -1.75525,1.808437 -2.28714,3.08498 -0.53189,1.223354 -0.53189,1.755247 0,0.957407 0.10637,1.808436 0.15957,0.851029 0.26595,1.702058 0.15957,0.851028 0.26595,1.755247 0.15956,0.904218 0.15956,2.021193 0,1.4893 -0.42551,2.819033 -0.37232,1.276543 -1.22335,2.28714 -0.85103,1.010597 -2.23395,1.595679 -1.38293,0.585082 -3.35093,0.585082 -3.9892,0 -5.79763,-1.808436 -1.80844,-1.808436 -1.80844,-5.691255 0,-1.010597 0.10638,-1.755247 0.15957,-0.79784 0.31913,-1.489301 0.21276,-0.74465 0.31914,-1.542489 0.15957,-0.79784 0.15957,-1.808436 0,-1.648869 -0.74465,-2.925412 -0.74465,-1.276543 -2.12757,-2.659465 -2.55309,-2.393519 -4.14877,-5.584877 -1.542489,-3.244547 -1.542489,-6.914609 z"
       id="text1"
       style="font-size:53.1893px;font-family:'Super Frog';-inkscape-font-specification:'Super Frog';stroke-width:0.277027"
       aria-label="COZY"
       inkscape:export-filename="selected.svg"
       inkscape:export-xdpi="96"
       inkscape:export-ydpi="96" />
  </g>
</svg>
